<svg width="35" height="35" viewBox="0 0 35 35" fill="none" xmlns="http://www.w3.org/2000/svg">
<circle cx="17.5" cy="17.5" r="17.5" fill="#22A0FF"/>
<path d="M23.1192 17.4984C23.1192 18.133 23.0134 18.744 22.8199 19.3134L21.9039 18.3975C21.9639 18.1015 21.994 17.8004 21.994 17.4984V16.3732C21.994 16.224 22.0532 16.0809 22.1587 15.9754C22.2642 15.8699 22.4073 15.8106 22.5566 15.8106C22.7058 15.8106 22.8489 15.8699 22.9544 15.9754C23.0599 16.0809 23.1192 16.224 23.1192 16.3732V17.4984ZM17.4932 21.9992C18.4136 21.9992 19.2687 21.7235 19.9821 21.2487L20.79 22.0577C19.9868 22.6402 19.0431 22.9986 18.0558 23.0963V25.3748H21.4314C21.5806 25.3748 21.7237 25.4341 21.8292 25.5396C21.9347 25.6451 21.994 25.7882 21.994 25.9374C21.994 26.0866 21.9347 26.2297 21.8292 26.3352C21.7237 26.4407 21.5806 26.5 21.4314 26.5H13.555C13.4058 26.5 13.2627 26.4407 13.1572 26.3352C13.0517 26.2297 12.9924 26.0866 12.9924 25.9374C12.9924 25.7882 13.0517 25.6451 13.1572 25.5396C13.2627 25.4341 13.4058 25.3748 13.555 25.3748H16.9306V23.0963C15.5428 22.9568 14.2564 22.3068 13.3208 21.2725C12.3852 20.2381 11.8672 18.8931 11.8672 17.4984V16.3732C11.8672 16.224 11.9265 16.0809 12.032 15.9754C12.1375 15.8699 12.2806 15.8106 12.4298 15.8106C12.579 15.8106 12.7221 15.8699 12.8276 15.9754C12.9331 16.0809 12.9924 16.224 12.9924 16.3732V17.4984C12.9924 18.6921 13.4666 19.8369 14.3106 20.681C15.1547 21.525 16.2995 21.9992 17.4932 21.9992ZM20.8688 11.8724V17.3623L14.2954 10.7889C14.553 10.0319 15.0708 9.39089 15.7568 8.97998C16.4428 8.56907 17.2523 8.41492 18.0413 8.54497C18.8302 8.67502 19.5474 9.08084 20.0652 9.69018C20.583 10.2995 20.8677 11.0728 20.8688 11.8724Z" fill="white"/>
<path d="M19.1731 20.4307L14.1255 15.382V17.4974C14.1253 18.0884 14.2803 18.6692 14.5751 19.1816C14.8698 19.6939 15.2939 20.1199 15.805 20.4169C16.316 20.7139 16.8961 20.8715 17.4872 20.8739C18.0783 20.8763 18.6596 20.7235 19.1731 20.4307ZM10.3516 10.0193L23.8539 23.5217L24.6506 22.725L11.1482 9.22266L10.3516 10.0193Z" fill="white"/>
</svg>
